<?xml version="1.0" encoding="UTF-8"?>
<svg width="20px" height="20px" viewBox="0 0 20 20" version="1.1" xmlns="http://www.w3.org/2000/svg" xmlns:xlink="http://www.w3.org/1999/xlink">
    <!-- Generator: Sketch 61.2 (89653) - https://sketch.com -->
    <title>btn_pause</title>
    <desc>Created with Sketch.</desc>
    <g id="pages" stroke="none" stroke-width="1" fill="none" fill-rule="evenodd">
        <g id="Sermons" transform="translate(-149.000000, -833.000000)" fill="#1B1B1B">
            <g id="player_vertical" transform="translate(148.000000, 466.000000)">
                <g id="Group-9" transform="translate(0.752132, 367.000000)">
                    <g id="btn_pause" transform="translate(0.247868, 0.000000)">
                        <path d="M6,0 C6.55228475,-1.01453063e-16 7,0.44771525 7,1 L7,19 C7,19.5522847 6.55228475,20 6,20 L2,20 C1.44771525,20 1,19.5522847 1,19 L1,1 C1,0.44771525 1.44771525,1.01453063e-16 2,0 L6,0 Z M18,0 C18.5522847,-1.01453063e-16 19,0.44771525 19,1 L19,19 C19,19.5522847 18.5522847,20 18,20 L14,20 C13.4477153,20 13,19.5522847 13,19 L13,1 C13,0.44771525 13.4477153,1.01453063e-16 14,0 L18,0 Z"></path>
                    </g>
                </g>
            </g>
        </g>
    </g>
</svg>